# xmcd
#
# Track frame offsets:
#	150
#	19785
#	40537
#	57575
#	74954
#	93196
#	108173
#	121617
#	137874
#	153683
#	168846
#
# Disc length: 2493 seconds
#
# Revision: 0
# Processed by: cddbd v1.5.1PL2 Copyright (c) Steve Scherf et al.
# Submitted via: dBpowerAMP V4.0
#
DISCID=9009bb0b
DTITLE=Volkan Konak - mora
DYEAR=2006
DGENRE=Undefined
TTITLE0=Gardas
TTITLE1=Aysem Destani II
TTITLE2=Bu Gaybana Sevdaluk
TTITLE3=Dertliyim Kederliyim
TTITLE4=Kavga
TTITLE5=Nefesim Nefesine
TTITLE6=Eledim Eledim
TTITLE7=O Vay Beni Aglarum
TTITLE8=Oy Trabzon
TTITLE9=Karima Mektup
TTITLE10=Kol Basti havasi
EXTD=
EXTT0=
EXTT1=
EXTT2=
EXTT3=
EXTT4=
EXTT5=
EXTT6=
EXTT7=
EXTT8=
EXTT9=
EXTT10=
PLAYORDER=
